<?xml version="1.0" standalone="no"?>
<!DOCTYPE svg PUBLIC "-//W3C//DTD SVG 20010904//EN"
 "http://www.w3.org/TR/2001/REC-SVG-20010904/DTD/svg10.dtd">
<svg version="1.0" xmlns="http://www.w3.org/2000/svg"
 width="941.000000pt" height="941.000000pt" viewBox="0 0 941.000000 941.000000"
 preserveAspectRatio="xMidYMid meet">
<metadata>
Created by potrace 1.14, written by Peter Selinger 2001-2017
</metadata>
<g transform="translate(0.000000,941.000000) scale(0.100000,-0.100000)"
fill="#000000" stroke="none">
<path d="M961 6013 c-19 -17 -35 -74 -56 -203 -2 -14 -7 -37 -10 -52 -3 -16
-7 -38 -9 -50 -8 -44 -19 -103 -23 -123 -2 -11 -8 -42 -13 -70 -14 -74 -19
-105 -30 -160 -5 -27 -12 -63 -15 -80 -2 -16 -21 -115 -41 -220 -20 -104 -38
-203 -39 -220 -2 -16 -4 -30 -5 -30 -1 0 -3 -9 -5 -20 -2 -11 -11 -56 -20
-100 -9 -44 -18 -89 -19 -100 -15 -94 -19 -113 -26 -126 -8 -11 -65 -14 -327
-14 l-318 0 -3 -65 -3 -66 365 1 c353 0 366 1 386 20 17 18 33 75 45 165 2 14
4 25 5 25 1 0 3 11 6 25 6 36 23 122 28 146 2 12 7 37 10 55 3 19 7 43 10 54
2 11 11 58 20 105 8 47 17 96 20 110 2 14 24 129 47 255 23 127 44 232 46 234
7 10 13 -9 18 -55 2 -27 7 -67 10 -89 11 -87 16 -132 20 -170 2 -22 6 -53 9
-70 2 -16 7 -57 11 -90 3 -33 10 -94 16 -136 5 -43 9 -81 8 -85 -1 -5 0 -11 1
-14 1 -3 3 -16 5 -30 2 -14 6 -45 9 -70 3 -25 8 -72 12 -105 3 -33 7 -71 10
-85 2 -14 7 -51 10 -82 3 -32 7 -67 9 -79 2 -12 7 -54 10 -93 4 -39 8 -77 11
-84 2 -8 7 -44 10 -80 3 -37 8 -78 10 -92 3 -14 7 -47 10 -75 3 -27 7 -63 9
-80 2 -16 6 -55 10 -85 3 -30 7 -68 9 -85 3 -16 8 -61 12 -100 4 -38 8 -77 10
-85 1 -8 3 -25 3 -38 1 -13 12 -34 26 -47 48 -48 106 -22 124 56 17 73 50 222
56 252 3 15 7 39 10 55 3 15 17 79 31 143 13 64 26 129 29 145 2 16 11 58 20
94 9 35 18 80 21 100 3 19 8 38 10 41 2 3 6 20 9 37 3 18 12 65 21 105 9 39
18 88 21 107 9 62 21 54 38 -26 26 -123 44 -173 68 -186 16 -9 266 -11 982 -9
528 2 1709 5 2625 7 1366 3 3866 11 4038 13 l42 1 0 65 0 65 -172 0 c-95 1
-279 0 -408 0 -129 -1 -809 -3 -1510 -6 -701 -2 -2108 -6 -3127 -8 -1018 -2
-1855 -6 -1860 -9 -4 -2 -17 -1 -28 3 -11 4 -32 4 -48 -1 -15 -4 -27 -4 -27 1
0 4 -15 4 -34 0 -19 -4 -40 -4 -47 1 -7 4 -17 5 -22 2 -12 -7 -306 -8 -313 0
-7 7 -41 128 -48 172 -5 30 -43 193 -59 253 -16 58 -38 81 -78 82 -52 0 -67
-28 -94 -171 -3 -13 -7 -33 -9 -44 -2 -11 -21 -96 -41 -190 -20 -93 -49 -231
-65 -307 -16 -75 -32 -151 -35 -170 -3 -18 -11 -51 -16 -73 -6 -22 -11 -47
-13 -55 -14 -84 -31 -119 -33 -67 0 24 -12 124 -19 170 -4 24 -8 57 -19 162
-13 122 -16 153 -20 175 -2 14 -7 52 -10 85 -4 33 -9 74 -11 90 -3 17 -7 53
-9 80 -3 28 -7 59 -9 71 -2 11 -7 53 -11 93 -3 40 -8 82 -10 93 -3 11 -7 46
-10 77 -9 82 -16 138 -30 246 -2 17 -6 57 -10 90 -7 69 -11 103 -20 165 -11
85 -14 115 -20 180 -3 36 -8 74 -9 85 -2 11 -7 49 -11 85 -4 36 -9 72 -11 80
-1 8 -3 28 -3 43 -1 35 -42 77 -74 77 -14 0 -34 -8 -46 -17z"/>
<path d="M2375 5883 c-43 -7 -106 -27 -141 -44 -65 -31 -164 -118 -164 -144 0
-8 -4 -15 -9 -15 -19 0 -47 -114 -45 -183 6 -162 74 -250 241 -313 35 -13 79
-26 98 -29 19 -2 51 -8 72 -14 41 -11 89 -21 113 -25 9 -1 21 -5 28 -10 6 -4
12 -5 12 -1 0 11 82 -37 102 -61 50 -57 20 -157 -58 -195 -28 -13 -67 -21
-114 -23 -129 -5 -238 62 -258 159 l-8 40 -109 5 c-158 7 -153 9 -144 -48 28
-180 167 -318 359 -357 8 -2 15 -4 15 -5 0 -3 79 -10 120 -12 59 -1 175 16
200 31 6 3 15 6 22 7 51 8 170 105 215 175 30 47 49 135 47 211 -5 150 -73
234 -244 297 -16 6 -39 13 -50 15 -11 2 -54 12 -95 21 -41 9 -86 19 -100 22
-129 27 -176 53 -191 104 -17 54 -4 102 36 137 37 33 74 44 150 47 52 1 58 0
114 -30 48 -25 66 -46 86 -98 9 -25 22 -47 29 -49 9 -3 215 -2 239 1 7 1 5 21
-9 86 -32 150 -191 274 -384 300 -81 11 -97 11 -175 -2z"/>
<path d="M4230 5870 c-75 -21 -122 -64 -149 -136 -18 -45 -19 -89 -20 -581 l0
-532 32 -3 c18 -2 73 -1 122 2 l90 5 2 348 c0 192 3 350 5 353 3 2 54 5 113 7
l109 2 -1 95 c-1 52 -2 100 -2 107 -1 8 -30 11 -93 11 -137 0 -128 -3 -128 40
0 62 22 74 130 75 90 0 90 1 91 26 4 81 4 168 0 179 -3 10 -36 12 -140 11 -75
-1 -147 -5 -161 -9z"/>
<path d="M8517 5873 c-2 -5 -3 -287 -3 -628 l1 -620 123 -5 c117 -5 122 -4
123 15 0 11 1 63 1 116 l1 97 67 72 66 73 97 -157 c53 -87 97 -162 97 -167 0
-5 4 -9 9 -9 5 0 11 -9 14 -20 5 -19 14 -20 150 -20 l146 0 -25 43 c-14 23
-29 49 -34 57 -39 60 -146 241 -159 268 -8 17 -19 32 -23 32 -4 0 -8 4 -8 10
0 5 -18 39 -40 75 -22 36 -41 70 -43 74 -1 5 27 42 63 81 76 85 78 87 150 170
30 35 65 74 78 88 12 14 22 26 22 27 0 1 -62 2 -138 1 l-138 -1 -39 -45 c-22
-24 -47 -51 -55 -60 -8 -9 -30 -34 -49 -55 -19 -22 -68 -78 -110 -124 -42 -46
-77 -87 -79 -92 -15 -38 -19 35 -20 329 0 185 -1 347 -1 360 -1 22 -3 22 -120
22 -66 0 -122 -3 -124 -7z"/>
<path d="M5495 5800 c-2 -3 -3 -225 -3 -495 0 -452 2 -494 19 -539 24 -64 71
-112 128 -131 46 -14 295 -24 308 -11 4 3 6 43 6 88 -1 136 7 123 -76 122 -75
0 -120 14 -131 41 -3 9 -6 115 -6 236 l0 219 48 1 c26 0 70 0 98 -1 35 -1 53
3 55 12 3 7 4 56 4 108 l0 95 -85 2 c-47 0 -93 2 -102 2 -16 1 -18 14 -18 129
l0 127 -121 0 c-66 0 -122 -2 -124 -5z"/>
<path d="M3349 5552 c-8 -2 -21 -6 -29 -9 -8 -3 -22 -7 -32 -9 -60 -12 -178
-118 -215 -195 -61 -123 -73 -323 -29 -444 71 -190 216 -290 410 -281 85 4
158 35 216 92 42 40 45 41 48 12 2 -13 4 -32 6 -43 2 -11 4 -28 5 -37 1 -16
13 -18 111 -18 l110 0 0 464 0 465 -107 -2 -108 -2 -12 -55 c-6 -30 -12 -57
-12 -59 -1 -2 -14 10 -30 27 -36 37 -104 77 -151 88 -37 9 -157 13 -181 6z
m214 -216 c97 -35 147 -132 141 -275 -4 -126 -65 -213 -164 -238 -46 -12 -80
-10 -133 11 -88 33 -134 116 -135 245 0 71 4 95 24 137 53 112 158 159 267
120z"/>
<path d="M4858 5545 c-207 -42 -336 -207 -343 -440 -4 -108 7 -169 47 -253 34
-73 122 -165 173 -182 19 -6 35 -15 35 -19 0 -13 158 -43 230 -43 120 0 249
51 317 126 47 52 96 147 91 179 -3 20 -8 21 -117 22 -112 0 -114 0 -124 -25
-28 -64 -112 -110 -199 -110 -35 0 -110 30 -133 54 -24 23 -54 89 -60 131 l-7
40 322 0 c245 0 324 3 332 12 11 14 5 145 -10 205 -36 139 -163 263 -309 299
-57 15 -181 16 -245 4z m218 -200 c17 -8 40 -25 52 -37 20 -22 52 -87 52 -107
0 -10 -399 -11 -405 -1 -5 9 30 82 51 106 54 60 172 79 250 39z"/>
<path d="M6833 5535 c-184 -66 -281 -226 -277 -455 3 -163 40 -267 124 -349
85 -83 129 -104 239 -116 29 -3 56 -6 60 -7 3 0 8 0 11 1 3 2 20 4 39 7 54 7
141 51 178 90 19 20 36 34 39 31 4 -4 14 -63 16 -105 1 -10 28 -12 112 -10
l111 3 0 461 1 462 -107 0 c-119 0 -113 3 -124 -72 -4 -25 -9 -46 -11 -46 -2
0 -18 16 -37 35 -83 85 -247 116 -374 70z m289 -207 c48 -27 101 -104 113
-164 6 -32 7 -120 2 -144 -2 -8 -7 -32 -12 -52 -4 -21 -11 -38 -16 -38 -5 0
-9 -6 -9 -14 0 -23 -72 -78 -119 -92 -95 -28 -200 18 -243 107 -28 59 -35 92
-32 166 3 112 56 201 139 236 45 19 139 16 177 -5z"/>
<path d="M7900 5544 c-206 -42 -339 -213 -344 -442 -6 -270 140 -456 381 -487
259 -32 449 83 508 307 8 34 9 48 1 49 -6 0 -64 1 -128 2 l-116 2 -12 -37
c-31 -106 -159 -151 -270 -95 -37 19 -51 34 -78 88 -26 52 -33 76 -33 129 -1
107 13 160 57 217 32 42 70 62 132 69 85 9 155 -32 188 -112 13 -31 17 -33 66
-36 29 -2 86 -2 126 0 82 4 81 4 55 85 -39 124 -140 220 -267 255 -67 18 -190
21 -266 6z"/>
<path d="M6019 5546 c-1 -1 -3 -209 -4 -463 l-1 -463 122 0 121 0 0 243 c1
278 9 336 57 390 41 46 75 59 163 61 40 2 76 5 79 9 10 10 11 189 2 209 -7 14
-18 17 -61 13 -28 -2 -52 -4 -52 -5 0 -1 -10 -3 -23 -6 -54 -10 -152 -85 -152
-117 -1 -28 -18 21 -23 66 -3 26 -8 51 -12 56 -4 7 -207 13 -216 7z"/>
</g>
</svg>
